<?xml version="1.0" encoding="utf-8"?>
<!-- Generator: Adobe Illustrator 24.1.2, SVG Export Plug-In . SVG Version: 6.00 Build 0)  -->
<svg version="1.1" id="Layer_1" xmlns="http://www.w3.org/2000/svg" xmlns:xlink="http://www.w3.org/1999/xlink" x="0px" y="0px"
	 viewBox="0 0 1366 768" style="enable-background:new 0 0 1366 768;" xml:space="preserve">
<style type="text/css">
	.st0{fill:#FDAC19;}
	.st1{fill:#111111;}
	.st2{fill:#28383F;}
	.st3{fill:#0591BD;}
	.st4{fill:#FDB93D;}
	.st5{fill:#0C4977;}
	.st6{fill:#CACCCE;}
	.st7{fill:#E7ECF1;}
	.st8{fill:#898C8B;}
	.st9{fill:#3B3936;}
	.st10{fill:#F6F6F5;}
	.st11{fill:#EE6B37;}
	.st12{fill:#ABAAAA;}
	.st13{fill:#FB7A48;}
	.st14{fill:#F7CB86;}
	.st15{fill:#FBCB62;}
</style>
<g>
	<path class="st0" d="M880.21,905.93c-2.07-1.33-4.52-2.31-6.12-4.07c-1.76-1.94-3.73-2.95-6.55-3.35c1.93-3.17,3.02-6.2,3.68-9.48
		c0.53-2.66,2.48-5.05,5-5.91c5.41-1.85,8.92-6.24,13.45-9.22c0.75,0.37,1.5,0.73,2.24,1.1c3.04,6.3,6.44,8.44,11.1,6.98
		c0.02,2.32-0.12,4.66,0.07,6.97c0.49,5.97,4.3,9.07,10.89,9.04c6.44-0.04,10.56-3.36,10.87-9.14c0.24-4.63-0.04-9.29,0.14-13.93
		c0.1-2.5-0.92-3.06-3.2-3.01c-2.26,0.05-3.8,0.16-3.64,3.15c0.22,4.13,0.08,8.29-0.03,12.44c-0.07,2.52-0.87,4.72-3.93,4.71
		c-3.11-0.02-4.36-1.92-4.36-4.86c0.01-3.98,0.03-7.97-0.02-11.95c-0.02-1.52,0.63-3.53-2.04-3.59c0.45-2.59-0.64-4.72-2.02-6.77
		c6.82-3.58,14.23-4.33,21.75-5.38c6.24-0.87,12.26-1.75,18.57-1.04c22.93,2.55,41.72,12.59,56.34,30.44
		c0.53,0.64,1.08,1.26,1.63,1.89c-2,4.42-5.96,7.05-9.33,10.22c-15,0.01-30,0.02-45,0.02c-18.46-0.06-36.91-0.11-55.37-0.18
		c-1.19,0-2.29,0.06-3.19,1C888.15,905.1,884.23,905.65,880.21,905.93z M889.73,898.01c1.58-2.44,1.64-4.85-0.12-7.23
		c-0.16-0.59-0.29-1.69-0.48-1.69c-4.12-0.17-8.33-0.76-12.34-0.13c-3.13,0.49-1.43,3.85-1.63,5.92c-0.13,1.4-0.93,3.98,1.58,3.91
		C881.07,898.69,885.53,900.12,889.73,898.01z"/>
	<path class="st0" d="M984.74,1007.94c-11.08,6.42-22.55,11.55-35.5,13.14c-25.58,3.14-47.82-3.88-66.97-21.01
		c-0.49-0.44-1.02-0.84-1.53-1.25c1.74-2.91,3.48-5.81,5.22-8.72c13.54-0.03,27.09-0.06,40.63-0.09c0.13,3.78-2.32,7.12-1.84,10.96
		l0.04-0.15c-1.35,0.11-2.7,0.21-4.05,0.32c-0.61-0.17-0.85,0.09-0.78,0.69c-0.03,0.35-0.06,0.71-0.09,1.06
		c1.22,1.75,3.04,0.86,4.54,0.88c10.08,0.09,20.17,0.12,30.26,0c2.73-0.03,5.59,0.78,8.22-0.69c0.32-0.47,0.67-0.94-0.05-1.38
		c-6.11-1.57-5.42-6.98-6.81-11.86c11.44,0,22.52,0,33.61,0c3.3,2.78,2.89,5.49,0.48,8.83
		C988.06,1001.55,985.42,1004.22,984.74,1007.94z"/>
	<path class="st0" d="M875.43,992.9c-20.46-25.15-24.38-52.96-13.46-84.38c1.51,4.2,3.18,6.9,6.58,7.99
		c3.33,1.07,6.2-0.09,8.98-1.76c0.08,16.05,0.16,32.09,0.24,48.14c-1.12,5.15-0.68,10.29,0.05,15.43
		c-0.37,3.47-0.58,6.93,0.38,10.35C877.27,990.08,876.35,991.49,875.43,992.9z"/>
	<path class="st1" d="M877.76,962.89c-0.08-16.05-0.16-32.09-0.24-48.14c2.13-2.56,3.48-5.37,2.68-8.82
		c4.02-0.28,7.95-0.83,10.94-3.93c0.9-0.94,2.01-1,3.19-1c18.46,0.07,36.91,0.12,55.37,0.18c0.99,1.59,1.99,3.17,2.98,4.76
		c0.02,0.32,0.03,0.65,0.02,0.97c-21.11,0.08-42.23,0.33-63.34,0.11c-5.09-0.05-6.51,1.61-5.44,6.21c0.01,1.25,0.01,2.49,0.02,3.74
		c-0.06,12.64-0.12,25.28-0.18,37.92C881.77,957.55,879.77,960.22,877.76,962.89z"/>
	<path class="st2" d="M984.74,1007.94c0.69-3.72,3.32-6.39,5.39-9.26c2.4-3.33,2.81-6.05-0.48-8.83c-1.78-3.11-3.56-6.21-5.37-9.37
		c5.64-1.93,9.42-0.18,11.39,5.07c1.67,4.43,2.71,2.1,4.16-0.13c1.52-2.34,2.06-5.86,6.01-5.68c1.4,0.39,2.58-0.25,3.78-0.82
		c0.3,1.12,2.52,1.66,0.84,3.41c-1.01,1.05-1.67,2.45-2.45,3.71c-5.71,9.25-5.78,9.3,0.28,18.12c1.08,1.57,2.89,3.38,0.91,4.38
		c-1.77,0.9-4.86,1.6-6.66-0.89c-1.62-2.23-2.98-4.66-4.69-7.38C994.1,1004.31,992.55,1011.89,984.74,1007.94z"/>
	<path class="st3" d="M1009.62,978.92c-1.2,0.56-2.38,1.21-3.78,0.82c-1.46-2.52-4.44-0.97-6.33-2.37c-0.13-1.93-1.61-2.78-2.99-3.7
		c0.03-0.76-0.1-1.45-0.86-1.84c0.04-0.33-0.02-0.64-0.18-0.92c-1.79-5.86-0.04-10.71,4.19-14.87c0.38-0.29,0.77-0.58,1.15-0.87
		c1.56-0.49,3.13-0.99,4.69-1.48c4.81-0.16,9,1.22,12.26,4.92C1023.07,967.93,1018.58,976.89,1009.62,978.92z M1007.61,972.46
		c3.37,0,10.24-3.93,10.4-5.96c0.18-2.25-7.4-6.64-10.99-6.37c-3.71,0.28-10.1,4.45-9.85,6.43
		C997.44,968.61,1004.26,972.46,1007.61,972.46z"/>
	<path class="st0" d="M1017.78,958.6c-3.26-3.7-7.45-5.09-12.26-4.92c0.07-5.46,0.13-10.92,0.19-16.38
		c0.35-0.09,0.69-0.17,1.04-0.26c0.49,0.08,0.97,0.21,1.47,0.23c10.58,0.37,10.58,0.37,10.92-9.88
		C1020.95,937.9,1020.92,948.32,1017.78,958.6z"/>
	<path class="st0" d="M1008.62,897.91c4.69,8.87,8.97,17.9,10.14,28.04c-4.03-0.98-8.06-2.02-12.09,0.04
		c-0.28-0.18-0.59-0.29-0.92-0.34c-0.07-3.11-0.02-6.22-0.24-9.32c-0.34-4.84,1.12-9.84-1.19-14.51
		C1005.57,900.32,1006.69,898.67,1008.62,897.91z"/>
	<path class="st2" d="M1006.68,925.99c4.02-2.06,8.05-1.02,12.09-0.04c0.12,0.48,0.25,0.96,0.37,1.44
		c-0.34,10.25-0.34,10.25-10.92,9.88c-0.49-0.02-0.98-0.15-1.47-0.23C1006.72,933.36,1006.7,929.68,1006.68,925.99z"/>
	<path class="st4" d="M875.77,863.39c-7.81,1-10.7-2.82-7.89-10.43c1.6-0.98,3.21-1.96,4.81-2.94c4.18,1.83,7.44,4.29,6.74,9.56
		C878.21,860.85,876.99,862.12,875.77,863.39z"/>
	<path class="st2" d="M875.43,992.9c0.92-1.41,1.84-2.82,2.77-4.23c1.48-2.27,3.06-2.68,4.82-0.29c-3.91,5.83-7.85,11.64-11.72,17.5
		c-0.91,1.38-1.58,2.92-3.55,3c-2.8-0.95-1.22-2.3-0.35-3.63C870.08,1001.14,872.75,997.02,875.43,992.9z"/>
	<path class="st5" d="M867.74,1008.88c1.97-0.07,2.64-1.62,3.55-3c3.87-5.86,7.81-11.67,11.72-17.5c0.98,0.57,1.97,1.15,2.95,1.73
		c-1.74,2.91-3.48,5.81-5.22,8.72c-2.18,3.09-4.74,5.99-6.46,9.31C872.21,1012.13,870.26,1011.66,867.74,1008.88z"/>
	<path class="st2" d="M1005.67,889.93c-0.11-1.13-2.8-3.25,0.04-3.13c3.15,0.14,4.84-1.24,7-2.76c1.15-0.82,2.84-0.74,4.04,0.64
		c1.21,1.41,0.83,2.75-0.16,3.97c-1.59,1.95-5.19,2.8-2.13,6.81c0.89,1.16-2.28,0.46-3.63,0.37c-0.26-1.94-1.64-3-3.1-4
		C1007.04,891.2,1006.35,890.57,1005.67,889.93z"/>
	<path class="st6" d="M1007.72,891.84c1.47,1,2.85,2.06,3.1,4c-1.08,0.32-1.77,1.07-2.2,2.08c-1.93,0.76-3.04,2.41-4.3,3.91
		c-1.73,1.72-3.45,3.43-5.18,5.15c-0.78-0.69-1.57-1.39-2.35-2.08c0.11-0.32,0.11-0.64,0.02-0.97
		C1000.69,900.11,1005.5,897.15,1007.72,891.84z"/>
	<path class="st7" d="M1007.72,891.84c-2.21,5.31-7.02,8.28-10.9,12.08c-1.01-0.37-2.02-0.74-3.03-1.11
		c0.31-0.55,0.62-1.1,0.93-1.65c3.37-3.17,7.33-5.8,9.33-10.22c0.55-0.33,1.09-0.67,1.64-1
		C1006.35,890.57,1007.04,891.2,1007.72,891.84z"/>
	<path class="st2" d="M875.77,863.39c1.22-1.27,2.44-2.53,3.66-3.8c2.64,2.66,6.63,3.44,9.02,6.45c-0.67,1.29-0.85,2.95-2.57,3.45
		C882.51,867.45,879.14,865.42,875.77,863.39z"/>
	<path class="st4" d="M885.88,869.48c1.72-0.51,1.9-2.16,2.57-3.45c1.85-1.29,3.59-0.43,5.33,0.29c0.74,0.75,0.66,2.14,1.94,2.46
		c-0.05,2.47-2.26,3.88-2.97,6.03c-0.27,0.13-0.55,0.19-0.84,0.18c-0.75-0.37-1.5-0.73-2.24-1.1
		C889.09,871.85,887.18,870.92,885.88,869.48z"/>
	<path class="st2" d="M872.69,850.02c-1.6,0.98-3.21,1.96-4.81,2.94c-0.4-2.3-0.8-4.59-1.19-6.89c0.06-0.14,0.2-0.3,0.17-0.42
		c-0.08-0.28-0.23-0.53-0.35-0.8c-0.18-0.61-0.37-1.23-0.55-1.84c1.92-0.34,3.85-0.68,5.77-1.01
		C872.4,844.63,871.24,847.48,872.69,850.02z"/>
	<path class="st3" d="M860.24,895c0.92,0.78,1.91,1.6,2.88,2.45c2.1,1.85,4.25,3.65,6.26,5.58c0.97,0.94,0.97,2.13-0.37,2.8
		c-0.86,0.44-1.65,1.27-2.74-0.29c-2.05-2.92-4.58-5.5-6.89-8.25C858.53,896.3,858.79,895.53,860.24,895z"/>
	<path class="st8" d="M895.72,868.79c-1.28-0.32-1.2-1.72-1.94-2.46c3.82-1.96,7.99-0.73,11.96-1.3c1.38,2.04,2.47,4.18,2.02,6.77
		c-0.51,0.04-1.02,0.07-1.53,0.11c-0.39-4.68-2.82-5.76-6.97-4.02C898.15,868.35,896.91,868.49,895.72,868.79z"/>
	<path class="st8" d="M871.72,842c-1.92,0.34-3.85,0.68-5.77,1.01c-1.7-1.15-1.82-3.32-0.96-4.33c1.34-1.56,3.78-0.83,5.59-0.48
		C872.62,838.6,872.66,840.33,871.72,842z"/>
	<path class="st2" d="M875.08,910.16c0.69,1.75-0.27,1.74-1.06,1.69c-2.34-0.15-3.39-1.92-4.08-3.76c-0.38-1.02,0.7-1.19,1.59-1.18
		C873.95,906.95,875.2,908.15,875.08,910.16z"/>
	<path class="st8" d="M866.5,844.86c0.12,0.26,0.28,0.52,0.35,0.8c0.03,0.11-0.11,0.28-0.17,0.42c-0.14-0.27-0.31-0.53-0.4-0.81
		C866.25,845.16,866.42,844.99,866.5,844.86z"/>
	<path class="st2" d="M906.24,871.9c0.51-0.04,1.02-0.07,1.52-0.11c2.67,0.06,2.02,2.07,2.04,3.59c0.05,3.98,0.03,7.96,0.02,11.95
		c-0.01,2.94,1.24,4.85,4.36,4.86c3.06,0.02,3.86-2.19,3.93-4.71c0.11-4.14,0.25-8.3,0.03-12.44c-0.16-2.98,1.38-3.09,3.64-3.15
		c2.28-0.05,3.29,0.51,3.2,3.01c-0.18,4.64,0.11,9.3-0.14,13.93c-0.31,5.79-4.43,9.11-10.87,9.14c-6.59,0.04-10.4-3.06-10.89-9.04
		c-0.19-2.31-0.06-4.64-0.07-6.97c0.86-0.65,2.52-0.65,2.48-1.98c-0.04-1.32-1.44-0.94-2.36-1.04
		C902.97,876.08,902.51,873.07,906.24,871.9z"/>
	<path class="st9" d="M994.71,901.15c-0.31,0.55-0.62,1.1-0.93,1.65c-1.31,1.06-2.62,2.12-3.93,3.18c-0.88-0.03-1.69,0.09-2.17,0.95
		c-11.32,0-22.65,0-33.97,0c-0.34-0.33-0.68-0.67-1.02-1c-0.99-1.59-1.99-3.17-2.98-4.76C964.71,901.17,979.71,901.16,994.71,901.15
		z"/>
	<path class="st10" d="M889.73,898.01c-4.2,2.11-8.66,0.68-12.98,0.79c-2.51,0.06-1.72-2.51-1.58-3.91c0.2-2.07-1.5-5.42,1.63-5.92
		c4.01-0.63,8.22-0.05,12.34,0.13c0.18,0.01,0.32,1.1,0.48,1.69c-2.26,0.07-4.53,0.13-6.79,0.19c-2.21,0.18-5.3,0.01-5.66,2.44
		c-0.43,2.98,3.14,2.44,4.96,3.45c0.13,0.07,0.31,0.06,0.47,0.08C884.74,898.88,887.39,897.38,889.73,898.01z"/>
	<path class="st11" d="M882.81,890.98c2.26-0.06,4.53-0.13,6.79-0.19c1.76,2.38,1.7,4.79,0.12,7.23c-2.34-0.63-4.99,0.87-7.14-1.06
		C882.67,894.96,882.74,892.97,882.81,890.98z"/>
	<path class="st8" d="M903.12,878.96c0.92,0.1,2.32-0.28,2.36,1.04c0.04,1.34-1.62,1.33-2.48,1.98c-4.66,1.46-8.06-0.68-11.1-6.98
		c0.3,0.01,0.58-0.05,0.84-0.18c2.1,0.55,3.07,2.44,4.31,3.88C899.13,881.1,900.99,881.32,903.12,878.96z"/>
	<path class="st6" d="M885.96,990.11c-0.98-0.58-1.97-1.15-2.95-1.73c-1.76-2.39-3.34-1.98-4.82,0.29
		c-0.96-3.42-0.75-6.88-0.38-10.35c3.29,1.54,4.11,5.82,7.75,6.98c2.03,1.52,4.3,2.3,6.83,2.7c9.12,1.43,15.2-3.03,20.11-9.97
		c25.41-0.03,50.82-0.06,76.23-0.08c3.62,0.31,7.26,1.07,10.78-0.58c1.88,1.4,4.87-0.15,6.33,2.37c-3.95-0.18-4.48,3.34-6.01,5.68
		c-1.45,2.23-2.49,4.56-4.16,0.13c-1.98-5.25-5.75-6.99-11.39-5.07c1.81,3.16,3.59,6.26,5.37,9.37c-11.08,0-22.17,0-33.61,0
		c1.39,4.88,0.7,10.29,6.81,11.86l-0.28,0.28c-1.64,0.06-3.4-0.67-4.82,0.77c-4.48,0.05-8.96,0.09-13.44,0.14
		c1.97-3.78,5.36-6.32,8.17-9.36c0.75-0.81,2.15-1.49,1.68-2.79c-0.51-1.4-2.02-0.85-3.09-0.85c-8.15,0-16.31,0.07-24.46,0.12
		C913.05,990.05,899.51,990.08,885.96,990.11z"/>
	<path class="st12" d="M926.6,990.01c8.15-0.05,16.31-0.12,24.46-0.12c1.08,0,2.59-0.55,3.09,0.85c0.47,1.3-0.93,1.98-1.68,2.79
		c-2.81,3.05-6.2,5.59-8.17,9.36c-2.8,0.07-5.63,0.41-8.4,0.15c-3.76-0.35-7.79,0.5-11.16-2.07
		C924.28,997.14,926.73,993.79,926.6,990.01z"/>
	<path class="st9" d="M924.75,1000.97c3.36,2.57,7.4,1.72,11.16,2.07c2.77,0.26,5.6-0.08,8.4-0.15c4.48-0.04,8.95-0.09,13.43-0.13
		c1.63,0.01,3.27,0.02,4.9,0.03l0.25,0.3c-2.63,1.47-5.48,0.66-8.22,0.69c-10.08,0.12-20.17,0.09-30.26,0
		c-1.51-0.01-3.32,0.87-4.54-0.88c1.61-0.05,3.26,0.11,4.81-0.21c1.49-0.3,1.06-1.18,0.1-1.87L924.75,1000.97z"/>
	<path class="st7" d="M924.79,1000.82c0.95,0.69,1.39,1.57-0.1,1.87c-1.55,0.31-3.2,0.16-4.81,0.21c0.03-0.35,0.06-0.71,0.09-1.06
		c0.26-0.23,0.52-0.46,0.78-0.69C922.09,1001.03,923.44,1000.93,924.79,1000.82z"/>
	<path class="st6" d="M920.74,1001.14c-0.26,0.23-0.52,0.46-0.78,0.69C919.89,1001.23,920.13,1000.97,920.74,1001.14z"/>
	<path class="st6" d="M962.84,1001.71c0.72,0.44,0.37,0.91,0.05,1.38c0,0-0.25-0.3-0.25-0.3c0-0.27-0.03-0.54-0.09-0.8
		L962.84,1001.71z"/>
	<path class="st2" d="M885.56,985.3c-3.64-1.15-4.46-5.44-7.75-6.98c-0.73-5.14-1.17-10.29-0.05-15.43c2-2.67,4.01-5.35,6.01-8.02
		c2.15,0.08,3.45-1.87,5.39-2.29c4.87-1.44,9.66-1.07,14.38,0.67c0.47,0.4,0.95,0.8,1.42,1.2c-0.13,0.89-0.27,1.78-0.4,2.67
		c-0.26-0.03-0.52-0.01-0.77,0.07c-2.96-2.79-5.53,0-8.25,0.58c-0.18-0.25-0.4-0.45-0.66-0.61c-0.98-5.37-3.83-1.32-5.91-1.17
		c-2.38,0.42-4.09,1.79-5.29,3.84c-5.28,6.11-4.85,12.51-0.97,19.09c1,2,2.89,3.13,4.43,4.6
		C886.62,984.11,886.09,984.71,885.56,985.3z"/>
	<path class="st7" d="M889.17,952.58c-1.94,0.42-3.24,2.37-5.39,2.29c0.06-12.64,0.12-25.28,0.18-37.92c38.4,0,76.8,0,115.19-0.01
		c0.15,12.32,0.29,24.63,0.44,36.95c0.03,0.71,0.06,1.42,0.08,2.14c-4.23,4.16-5.99,9.02-4.19,14.87c-0.27,0.31-0.54,0.63-0.8,0.94
		c-2.63,0.64-5.48-0.69-8,0.94c-1.99-0.09-3.97-0.26-5.96-0.27c-22.28-0.03-44.56-0.04-66.84-0.05c0.34-6.07-1.4-11.4-5.62-15.84
		c3.24-1.14,6.6-0.56,9.88-0.5c3.47,0.06,4.7-1.29,4.65-4.72c-0.14-9.31-0.13-18.62,0-27.92c0.04-2.68-0.56-3.87-3.54-3.79
		c-7.31,0.19-14.63,0.17-21.94,0.01c-2.83-0.06-3.72,0.87-3.68,3.69c0.14,8.47,0.02,16.95,0,25.43
		C891.17,948.91,888.39,948.65,889.17,952.58z M953.61,933.43c9.47,0.12,18.93,0.19,28.4,0.37c3.24,0.06,2.75-2.19,2.69-4.11
		c-0.07-1.97,0.89-4.68-2.73-4.58c-9.45,0.27-18.92-0.62-28.36,0.5c-1.31-0.14-2.62-0.28-3.93-0.43c-3.22-0.36-5.05,0.1-5.15,4.31
		c-0.1,4.44,2.18,4.37,5.13,4.24C950.98,933.66,952.29,933.53,953.61,933.43z M932.76,937.95c-0.26,0.19-0.73,0.38-0.73,0.57
		c-0.09,8.15-0.1,16.3-0.21,24.44c-0.03,2.4,1.42,2.62,3.25,2.62c11.32-0.02,22.63-0.05,33.95,0.02c2.38,0.01,3.25-0.94,3.23-3.25
		c-0.06-7.15-0.07-14.31,0.01-21.46c0.02-2.25-0.61-3.27-3.11-3.23c-11.81,0.16-23.62,0.16-35.43,0.22
		C933.39,937.77,933.07,937.79,932.76,937.95z M980.88,953.57c4.03-5.96,7.68-2.71,11.48,0.01c0-4.3,0-7.9,0-11.93
		c-1.78,0.55-3.29,1.07-4.93,1.1c-7.5,0.15-7.51,0.21-7.08,7.72C980.38,951.13,980.56,951.77,980.88,953.57z"/>
	<path class="st11" d="M953.71,906.93c11.32,0,22.65,0,33.97,0c0.72,0.01,1.45,0.02,2.17,0.02c0.97,1.34,1.49,4.27,3.65,0.79
		c0.73-1.18,2.17-1.92,3.29-2.86c0.78,0.69,1.57,1.39,2.35,2.08c0.02,2.06,0.04,4.13,0.06,6.19c-26.57,0.06-53.14,0.11-79.71,0.17
		c-4.5-0.46-9-0.46-13.49,0c-1.5,0-2.99,0-4.49,0c-4.5-0.4-9-0.47-13.5,0.01c-1.36-0.04-2.72-0.09-4.08-0.13
		c-1.06-4.6,0.35-6.26,5.44-6.21c21.11,0.22,42.22-0.03,63.34-0.11C953.05,906.91,953.38,906.92,953.71,906.93z"/>
	<path class="st6" d="M883.94,913.22c1.36,0.04,2.72,0.09,4.07,0.13c4.5,0.96,9,0.97,13.5-0.01c1.5,0,2.99,0,4.49,0
		c4.5,0.98,9,0.98,13.5,0c26.57-0.06,53.14-0.11,79.71-0.17c-0.02,1.26-0.04,2.52-0.05,3.79c-38.4,0-76.8,0-115.19,0.01
		C883.95,915.71,883.95,914.46,883.94,913.22z"/>
	<path class="st2" d="M953.71,906.93c-0.33-0.01-0.66-0.02-0.99-0.03c0-0.32,0-0.65-0.02-0.97
		C953.03,906.27,953.37,906.6,953.71,906.93z"/>
	<path class="st9" d="M999.15,916.95c0.02-1.26,0.04-2.52,0.05-3.79c-0.02-2.06-0.04-4.13-0.06-6.19c1.73-1.72,3.45-3.43,5.18-5.15
		c2.31,4.68,0.85,9.67,1.19,14.51c0.22,3.1,0.17,6.21,0.24,9.32c-3.4,0.24-3.25,2.71-3.02,5.04c0.24,2.49-1.47,5.98,2.97,6.61
		c-0.06,5.46-0.13,10.92-0.19,16.38c-1.56,0.49-3.13,0.99-4.69,1.48c-0.41-0.42-0.82-0.85-1.23-1.27
		C999.44,941.58,999.3,929.26,999.15,916.95z"/>
	<path class="st7" d="M1007.61,972.46c-3.35,0-10.17-3.86-10.44-5.9c-0.26-1.98,6.13-6.15,9.85-6.43c3.6-0.27,11.17,4.12,10.99,6.37
		C1017.85,968.53,1010.98,972.47,1007.61,972.46z M1010.65,966.19c-0.55-1.46-1.72-2.43-3.51-2.39c-1.68,0.04-3.42,0.39-3.34,2.63
		c0.07,1.89,1.69,3.31,3.07,3.17C1008.25,969.46,1010.38,968.79,1010.65,966.19z"/>
	<path class="st9" d="M999.51,977.37c-3.51,1.65-7.16,0.88-10.78,0.58c-0.55-1.44-2.18-2.36-2-4.15c3.26-0.04,6.53-0.08,9.79-0.12
		C997.9,974.6,999.38,975.44,999.51,977.37z"/>
	<path class="st8" d="M996.52,973.67c-3.26,0.04-6.53,0.08-9.79,0.12c-0.02-0.34-0.03-0.68-0.05-1.01c2.51-1.63,5.37-0.29,8-0.94
		c0.33-0.01,0.66-0.01,0.98-0.02C996.42,972.22,996.55,972.91,996.52,973.67z"/>
	<path class="st2" d="M999.59,953.9c0.41,0.42,0.82,0.85,1.23,1.27c-0.38,0.29-0.77,0.58-1.15,0.87
		C999.65,955.32,999.62,954.61,999.59,953.9z"/>
	<path class="st10" d="M995.66,971.83c-0.33,0.01-0.66,0.01-0.98,0.02c0.27-0.31,0.54-0.63,0.8-0.94
		C995.65,971.19,995.71,971.5,995.66,971.83z"/>
	<path class="st5" d="M1005.71,937.3c-4.45-0.63-2.73-4.12-2.97-6.61c-0.23-2.32-0.38-4.8,3.02-5.04c0.33,0.04,0.64,0.16,0.92,0.34
		c0.02,3.68,0.05,7.37,0.07,11.05C1006.4,937.13,1006.06,937.22,1005.71,937.3z"/>
	<path class="st13" d="M996.8,904.89c-1.12,0.94-2.56,1.68-3.29,2.86c-2.17,3.48-2.68,0.55-3.65-0.79c-0.12-0.32-0.12-0.65,0-0.97
		c1.31-1.06,2.62-2.12,3.93-3.18c1.01,0.37,2.02,0.74,3.03,1.11C996.91,904.24,996.9,904.57,996.8,904.89z"/>
	<path class="st0" d="M903.12,878.96c-2.13,2.36-3.99,2.14-6.06-0.26c-1.24-1.44-2.21-3.33-4.31-3.88c0.7-2.15,2.91-3.56,2.97-6.04
		c1.19-0.29,2.43-0.44,3.55-0.91c4.15-1.73,6.57-0.66,6.97,4.02C902.51,873.07,902.97,876.08,903.12,878.96z"/>
	<path class="st2" d="M989.85,905.99c-0.12,0.32-0.12,0.65,0,0.97c-0.72-0.01-1.45-0.02-2.17-0.02
		C988.16,906.07,988.97,905.95,989.85,905.99z"/>
	<path class="st7" d="M882.81,890.98c-0.07,1.99-0.15,3.98-0.22,5.97c-0.16-0.02-0.34-0.01-0.47-0.08c-1.82-1.01-5.4-0.47-4.96-3.45
		C877.51,890.99,880.6,891.16,882.81,890.98z"/>
	<path class="st1" d="M986.68,972.78c0.02,0.34,0.03,0.68,0.05,1.01c-0.18,1.79,1.45,2.71,2,4.15c-25.41,0.03-50.82,0.06-76.22,0.08
		c0.46-1.86,0.92-3.71,1.37-5.57c22.28,0.01,44.56,0.02,66.84,0.05C982.71,972.52,984.7,972.69,986.68,972.78z"/>
	<path class="st5" d="M913.88,972.46c-0.46,1.86-0.91,3.71-1.37,5.57c-4.91,6.94-11,11.4-20.12,9.97c-2.53-0.4-4.8-1.17-6.83-2.7
		c0.53-0.6,1.05-1.19,1.58-1.79c2.78,1.13,5.49,2.53,8.65,2.05c5.04-0.42,9.42-2.04,12.14-6.68c1.55-2.47,3-4.97,2.82-8.04
		c0.78-5.85-2.27-9.98-6.18-13.72c0.13-0.89,0.27-1.78,0.4-2.67c1.1,0.72,2.19,1.44,3.29,2.17
		C912.48,961.07,914.22,966.4,913.88,972.46z"/>
	<path class="st7" d="M962.56,1001.99c0.06,0.26,0.09,0.53,0.09,0.8c-1.63-0.01-3.27-0.02-4.9-0.03
		C959.16,1001.32,960.92,1002.04,962.56,1001.99z"/>
	<path class="st4" d="M908.26,956.62c-1.1-0.72-2.2-1.45-3.29-2.17c-0.47-0.4-0.95-0.8-1.42-1.2c0.71-3.27-0.56-4.66-3.93-4.39
		c-1.98,0.16-3.99-0.02-5.99-0.05c0.02-8.48,0.14-16.95,0-25.43c-0.05-2.82,0.85-3.75,3.68-3.69c7.31,0.16,14.63,0.18,21.94-0.01
		c2.98-0.08,3.58,1.12,3.54,3.79c-0.13,9.31-0.14,18.62,0,27.92c0.05,3.43-1.18,4.78-4.65,4.72
		C914.86,956.06,911.5,955.48,908.26,956.62z M906.8,933.93c-1.09-1.94,2.1-5.64-2.03-6.9c-6.47-1.97-9,0.04-9,6.75
		c0,1.5-0.02,2.99,0.01,4.49c0.02,1.22,0.31,2.15,1.73,2.62C903.48,942.88,906.8,940.57,906.8,933.93z M915.12,938.89
		c2.49-0.27,5.84,1.19,5.71-3.72c-0.11-4.21-2.9-3.35-5.17-3.22c-2.41,0.14-5.92-1.61-5.99,3.39
		C909.6,939.9,912.65,938.68,915.12,938.89z M914.91,930.05c0,0.01,0,0.01,0,0.02c0.49,0,0.99,0.06,1.47-0.01
		c1.31-0.2,3.36,0.62,3.41-1.64c0.05-2.29-2-1.62-3.33-1.72c-1.46-0.1-2.94-0.02-4.42-0.01c-1.26,0.01-2.31,0.28-2.18,1.89
		c0.11,1.33,1.11,1.43,2.11,1.46C912.95,930.08,913.93,930.05,914.91,930.05z M907.31,945.4c-0.03-2.06-1.11-2.44-2.63-2.42
		c-1.58,0.02-3.05,0.02-2.93,2.24c0.08,1.4,0.2,2.71,2.1,2.6C905.62,947.71,906.99,947.06,907.31,945.4z M919.91,922.87
		c-0.06-0.23-0.13-0.46-0.19-0.69c-7.8,0-15.61,0-23.41,0c0,0.23,0.01,0.46,0.01,0.69C904.18,922.87,912.04,922.87,919.91,922.87z
		 M897.59,947.83c1.93,0,2.97-0.79,3.16-2.54c0.19-1.66-0.58-2.31-2.24-2.31c-1.68-0.01-2.9,0.23-2.77,2.33
		C895.83,946.69,895.88,947.98,897.59,947.83z"/>
	<path class="st8" d="M910.75,970.83c0.18,3.08-1.27,5.58-2.82,8.04c-5.39-0.09-10.78-0.17-16.17-0.25
		c-3.05-1.04-6.08-1.5-9.04,0.29c-3.88-6.58-4.31-12.98,0.97-19.09c0.03,2.14,0.29,4.31,0.03,6.42c-0.59,4.81,1.19,6.79,6.04,5.63
		C896.75,971.5,903.86,973.37,910.75,970.83z"/>
	<path class="st7" d="M910.75,970.83c-6.89,2.54-13.99,0.67-20.99,1.04c0.7-2.97,1.39-5.94,2.09-8.91c2.14-0.01,4.32-0.3,6.41,0.01
		c4.77,0.71,6.27-1.4,5.54-5.79c0.25-0.08,0.51-0.11,0.77-0.07C908.48,960.85,911.53,964.98,910.75,970.83z"/>
	<path class="st14" d="M903.79,957.19c0.72,4.39-0.77,6.5-5.54,5.79c-2.09-0.31-4.27-0.03-6.41-0.01c-4.41-0.91-2.69-4.34-2.86-6.98
		c2.07-0.15,4.92-4.2,5.91,1.17c-1.41,0.61-0.99,1.72-0.79,2.83c1.04-0.42,1.21-1.34,1.45-2.22
		C898.27,957.19,900.84,954.4,903.79,957.19z"/>
	<path class="st6" d="M888.98,955.99c0.18,2.65-1.54,6.07,2.86,6.98c-0.69,2.97-1.39,5.94-2.09,8.91c-4.85,1.16-6.63-0.82-6.04-5.63
		c0.26-2.11-0.01-4.28-0.03-6.42C884.89,957.78,886.59,956.41,888.98,955.99z"/>
	<path class="st12" d="M882.71,978.91c2.96-1.79,5.99-1.32,9.04-0.29c0.31,2.91,3.26,4.29,4.03,6.94c-3.16,0.49-5.87-0.92-8.65-2.05
		C885.61,982.04,883.71,980.91,882.71,978.91z"/>
	<path class="st11" d="M893.63,948.81c2,0.03,4.01,0.22,5.99,0.05c3.37-0.27,4.64,1.11,3.93,4.39c-4.72-1.74-9.51-2.11-14.38-0.67
		C888.39,948.65,891.17,948.91,893.63,948.81z"/>
	<path class="st13" d="M895.55,957.77c-0.24,0.88-0.41,1.8-1.45,2.22c-0.2-1.11-0.63-2.22,0.79-2.83
		C895.15,957.32,895.37,957.52,895.55,957.77z"/>
	<path class="st13" d="M933.71,937.89c11.81-0.06,23.62-0.06,35.43-0.22c2.5-0.03,3.13,0.98,3.11,3.23
		c-0.08,7.15-0.07,14.31-0.01,21.46c0.02,2.31-0.85,3.26-3.23,3.25c-11.32-0.07-22.63-0.04-33.95-0.02c-1.84,0-3.28-0.22-3.25-2.62
		c0.1-8.15,0.12-16.3,0.21-24.44c0-0.19,0.48-0.38,0.73-0.57C933.12,938.51,933.43,938.45,933.71,937.89z M945.77,952.04
		c-0.83-2.65,1.29-6.23-1.34-7.52c-2.27-1.12-5.65-0.79-8.29-0.13c-2.52,0.63-1,3.42-1.31,5.23c-0.14,0.81-0.04,1.66-0.05,2.49
		c-0.07,6.85-0.05,6.49,6.64,6.83C948.08,959.28,944.22,954.2,945.77,952.04z M949.02,951.03c0,0.89-0.04,1.39,0.01,1.88
		c0.28,2.77-1.47,6.3,4.09,6.35c5.38,0.05,4.22-3.16,4.28-6.12c0.02-1.16-0.16-2.34,0.03-3.46c0.78-4.46-1.49-5.23-5.32-4.98
		C946.55,945.05,950.23,949.28,949.02,951.03z M965.42,958.93c2.54,0.29,4.4,0.2,4.31-3.37c-0.08-3.05-1.34-3.48-3.88-3.44
		c-2.52,0.04-4.39-0.03-4.3,3.51C961.62,958.67,962.85,959.36,965.42,958.93z M965.61,950.83c2.06,0.1,4.13,0.55,4.1-2.97
		c-0.03-3.21-1.64-3.36-4.01-3.29c-2.19,0.06-4.15-0.24-4.19,3.13C961.47,951,963.19,951.1,965.61,950.83z M958.1,941.81
		c-0.05-0.2-0.09-0.4-0.14-0.6c-7.81,0-15.62,0-23.43,0c0,0.2,0.01,0.4,0.01,0.6C942.39,941.81,950.24,941.81,958.1,941.81z"/>
	<path class="st15" d="M953.6,925.61c9.44-1.12,18.91-0.23,28.36-0.5c3.63-0.1,2.67,2.6,2.73,4.58c0.06,1.92,0.55,4.17-2.69,4.11
		c-9.46-0.17-18.93-0.25-28.39-0.36C953.61,930.83,953.6,928.22,953.6,925.61z M966.65,929.21c-0.01,0.17-0.01,0.35-0.02,0.52
		c5.08,0,10.16,0,15.24,0c0-0.17,0-0.35,0-0.52C976.8,929.21,971.73,929.21,966.65,929.21z"/>
	<path class="st2" d="M980.88,953.57c-0.32-1.8-0.5-2.44-0.54-3.09c-0.42-7.51-0.42-7.57,7.08-7.72c1.64-0.03,3.15-0.55,4.93-1.1
		c0,4.03,0,7.63,0,11.93C988.55,950.87,984.91,947.61,980.88,953.57z M986.41,944.53c-1.44,0.05-2.49,0.82-2.53,2.29
		c-0.03,1.18,0.7,2.17,2.08,2.18c1.44,0.01,2.58-0.56,2.63-2.2C988.63,945.44,987.68,944.83,986.41,944.53z"/>
	<path class="st4" d="M953.6,925.61c0,2.61,0.01,5.22,0.01,7.83c-1.32,0.1-2.64,0.23-3.96,0.29c-2.95,0.13-5.23,0.21-5.13-4.24
		c0.09-4.21,1.93-4.67,5.15-4.31C950.98,925.32,952.29,925.46,953.6,925.61z M947.38,927.11c-0.81,1.6-1.2,3.28-0.13,3.98
		c1.51,1,2.15-1.51,3.74-1.57C949.79,928.72,948.75,928.03,947.38,927.11z"/>
	<path class="st11" d="M933.71,937.89c-0.28,0.56-0.6,0.62-0.95,0.06C933.07,937.79,933.39,937.77,933.71,937.89z"/>
	<path class="st12" d="M901.51,913.34c-4.5,0.98-9,0.97-13.5,0.01C892.51,912.87,897.01,912.94,901.51,913.34z"/>
	<path class="st12" d="M919.5,913.34c-4.5,0.98-9,0.98-13.5,0C910.5,912.88,915,912.88,919.5,913.34z"/>
	<path class="st2" d="M1010.65,966.19c-0.27,2.6-2.4,3.27-3.78,3.41c-1.37,0.14-3-1.28-3.07-3.17c-0.08-2.24,1.66-2.59,3.34-2.63
		C1008.93,963.76,1010.11,964.73,1010.65,966.19z"/>
	<path class="st6" d="M895.79,985.56c-0.78-2.64-3.72-4.02-4.03-6.94c5.39,0.08,10.78,0.17,16.17,0.25
		C905.21,983.52,900.83,985.14,895.79,985.56z"/>
	<path class="st14" d="M906.8,933.93c0,6.65-3.32,8.95-9.3,6.97c-1.42-0.47-1.71-1.39-1.73-2.62c-0.02-1.5,0-2.99-0.01-4.49
		c0-6.71,2.54-8.73,9-6.75C908.9,928.29,905.71,931.99,906.8,933.93z"/>
	<path class="st14" d="M915.12,938.89c-2.47-0.21-5.52,1.01-5.45-3.55c0.07-5.01,3.59-3.26,5.99-3.39c2.27-0.13,5.06-0.99,5.17,3.22
		C920.96,940.09,917.6,938.62,915.12,938.89z"/>
	<path class="st7" d="M914.91,930.05c-0.98,0-1.96,0.03-2.95-0.01c-1-0.03-2-0.13-2.11-1.46c-0.13-1.61,0.93-1.88,2.18-1.89
		c1.47-0.01,2.95-0.1,4.42,0.01c1.33,0.1,3.38-0.58,3.33,1.72c-0.05,2.26-2.1,1.44-3.41,1.64c-0.48,0.07-0.98,0.01-1.47,0.01
		C914.91,930.07,914.91,930.06,914.91,930.05z"/>
	<path class="st7" d="M907.31,945.4c-0.33,1.66-1.69,2.31-3.46,2.42c-1.9,0.12-2.02-1.2-2.1-2.6c-0.12-2.22,1.35-2.22,2.93-2.24
		C906.2,942.96,907.28,943.34,907.31,945.4z"/>
	<path class="st7" d="M919.91,922.87c-7.86,0-15.73,0-23.59,0c0-0.23-0.01-0.46-0.01-0.69c7.8,0,15.61,0,23.41,0
		C919.78,922.41,919.84,922.64,919.91,922.87z"/>
	<path class="st7" d="M897.59,947.83c-1.71,0.15-1.76-1.15-1.84-2.53c-0.13-2.1,1.09-2.33,2.77-2.33c1.66,0.01,2.43,0.65,2.24,2.31
		C900.56,947.04,899.52,947.83,897.59,947.83z"/>
	<path class="st14" d="M945.77,952.04c-1.55,2.16,2.3,7.24-4.35,6.91c-6.69-0.34-6.71,0.03-6.64-6.83c0.01-0.83-0.09-1.68,0.05-2.49
		c0.31-1.82-1.21-4.6,1.31-5.23c2.64-0.66,6.02-0.99,8.29,0.13C947.07,945.81,944.95,949.39,945.77,952.04z"/>
	<path class="st7" d="M949.02,951.03c1.21-1.75-2.47-5.98,3.08-6.33c3.83-0.25,6.1,0.52,5.32,4.98c-0.2,1.12-0.01,2.31-0.03,3.46
		c-0.05,2.96,1.11,6.17-4.28,6.12c-5.56-0.06-3.81-3.58-4.09-6.35C948.98,952.42,949.02,951.92,949.02,951.03z"/>
	<path class="st7" d="M965.42,958.93c-2.57,0.43-3.8-0.26-3.87-3.3c-0.09-3.54,1.78-3.47,4.3-3.51c2.54-0.04,3.8,0.39,3.88,3.44
		C969.82,959.13,967.96,959.22,965.42,958.93z"/>
	<path class="st7" d="M965.61,950.83c-2.42,0.27-4.14,0.17-4.1-3.13c0.04-3.37,1.99-3.07,4.19-3.13c2.37-0.07,3.98,0.08,4.01,3.29
		C969.74,951.38,967.67,950.93,965.61,950.83z"/>
	<path class="st10" d="M958.1,941.81c-7.85,0-15.71,0-23.56,0c0-0.2-0.01-0.4-0.01-0.6c7.81,0,15.62,0,23.43,0
		C958,941.42,958.05,941.62,958.1,941.81z"/>
	<path class="st7" d="M966.65,929.21c5.07,0,10.15,0,15.22,0c0,0.17,0,0.35,0,0.52c-5.08,0-10.16,0-15.24,0
		C966.64,929.56,966.65,929.39,966.65,929.21z"/>
	<path class="st7" d="M986.41,944.53c1.27,0.3,2.22,0.91,2.18,2.28c-0.05,1.64-1.19,2.2-2.63,2.2c-1.38-0.01-2.11-1-2.08-2.18
		C983.92,945.35,984.97,944.58,986.41,944.53z"/>
	<path class="st15" d="M947.38,927.11c1.37,0.92,2.41,1.61,3.61,2.41c-1.59,0.05-2.23,2.57-3.74,1.57
		C946.18,930.39,946.57,928.71,947.38,927.11z"/>
</g>
</svg>
